<svg id="Layer_1" data-name="Layer 1" xmlns="http://www.w3.org/2000/svg" viewBox="0 0 1000 1000"><defs><style>.cls-1{fill:#fff;}</style></defs><title>data-light</title><path class="cls-1" d="M691.05,293c-2.2,5.8,1.21,9.21,6.68,12.82,25.86,17.07,51.46,34.56,77,52.13,3.65,2.51,6.16,2.19,9.8.14,17.46-9.8,40.36-3.61,51.53,13.63,10.41,16.06,6,40.63-9.34,52.23-16.65,12.58-39.91,10.7-53.19-4.35a40,40,0,0,1-10.18-31.75,9.37,9.37,0,0,0-3.26-7.31q-40.47-28-81.42-55.34c-2.09-1.4-6.77-1.28-8.9.14-12.38,8.26-34.69,5.49-46.5-7.78-3.08-3.46-5.72-3.46-9.5-2.34-31,9.2-61.94,18.39-93,27.32-5.09,1.47-7.41,3.77-8.61,9.26-4.32,19.84-22.27,32-42.51,29.65-19.82-2.29-35-18.78-34.49-38.83.16-6.46-2.35-9.09-7.34-11.91-22-12.42-43.81-25.16-65.61-37.93-3.47-2-5.75-2.58-9.43.47-10.93,9.08-23.49,11.69-37.41,7.61-2.54-.74-6.36-.37-8.45,1.1q-38.34,27-76.16,54.67c-1.86,1.36-2.83,5.37-2.56,8,2,18.24-6.16,33.77-22,41.13-14.81,6.9-33.74,3.29-45.55-8.68s-13.83-30.31-5.41-46.39c7.47-14.27,24.46-22.46,40.9-19.68,1.53.26,3.35.3,4.51,1.16,8.48,6.26,15.07,3,22.63-2.69,21-15.82,42.6-30.86,64-46.16,3-2.17,4.3-4.12,2.91-8.36a38.51,38.51,0,0,1,27.65-49.7c23-5.33,45,8.54,48.13,31.33.95,6.89,3.88,10.28,9.56,13.48,22.46,12.66,44.68,25.75,66.88,38.85,4.17,2.46,7.23,3.07,11.86.08,15.66-10.1,35.23-7,48.53,6.44,1.85,1.87,6.07,3.07,8.57,2.37,31.58-8.93,63-18.35,94.57-27.42,4.56-1.31,6.48-3.36,7.5-8.26a39.1,39.1,0,0,1,43-30.56C677,254.18,691.75,271.44,691.05,293Z"/><path class="cls-1" d="M595.52,599.21q0-81.75,0-163.52c0-12.43,2.82-15.37,15-15.4q32.48-.1,65,0c11.85,0,15,3.09,15,14.86q.06,164.31,0,328.62c0,12.27-3.07,15.3-15.25,15.33q-32.47.09-64.94,0c-12,0-14.76-2.86-14.76-14.77Q595.49,681.77,595.52,599.21Z"/><path class="cls-1" d="M374.75,600q0,81.75,0,163.49c0,13.13-2.42,15.61-15.41,15.65-21.64.06-43.28.09-64.92,0C283.11,779,280,776,280,764.57q-.07-164.66,0-329.32c0-11.92,3.1-14.94,14.87-15q32.07-.09,64.14,0c13.3,0,15.71,2.52,15.71,16.22Q374.77,518.24,374.75,600Z"/><path class="cls-1" d="M529.52,637.54q0,62.6,0,125.18c0,14-2.32,16.34-16.33,16.35-21.12,0-42.25.06-63.37,0-12,0-15-3-15-14.64q0-127.12,0-254.27c0-11.66,3.27-14.95,14.83-15q32.48-.09,64.94,0c11.73,0,14.91,3.19,14.92,14.85Q529.56,573.78,529.52,637.54Z"/><path class="cls-1" d="M236.77,662.05q0,50.49,0,101c0,13.76-2.31,16.14-15.74,16.16q-32.09.06-64.18,0C145.1,779.11,142,776,142,764.29q-.06-102.91,0-205.83c0-11.71,3.19-14.88,14.8-14.91q32.88-.07,65.75,0c11.44,0,14.23,2.79,14.25,14.4Q236.84,610,236.77,662.05Z"/><path class="cls-1" d="M849.44,662.11q0,51.24,0,102.47c0,12-2.55,14.56-14.76,14.59q-32.46.06-64.92,0c-11.78,0-14.46-2.63-14.47-14.2q-.09-103.63,0-207.28c0-11.48,2.78-14.09,14.47-14.11q32.07-.06,64.14,0c13.38,0,15.55,2.14,15.56,15.31Q849.48,610.49,849.44,662.11Z"/></svg>